<?xml version="1.0" encoding="UTF-8"?>
<svg width="135px" height="170px" viewBox="0 0 135 170" version="1.1" xmlns="http://www.w3.org/2000/svg" xmlns:xlink="http://www.w3.org/1999/xlink">
    <!-- Generator: Sketch 49.3 (51167) - http://www.bohemiancoding.com/sketch -->
    <title>Shape Copy 2</title>
    <desc>Created with Sketch.</desc>
    <defs></defs>
    <g id="Symbols" stroke="none" stroke-width="1" fill="none" fill-rule="evenodd">
        <g id="icon-/-bitcoin-white" transform="translate(-20.000000, 0.000000)" fill="#FFFFFF" fill-rule="nonzero">
            <path d="M153.87973,68.5524987 C156.656633,50.7898422 142.523636,41.2410586 123.198657,34.8710312 L129.467396,10.8092645 L114.161734,7.15911787 L108.058651,30.586802 C104.034975,29.6273348 99.9023153,28.7220985 95.7958119,27.8252053 L101.942489,4.24317215 L86.6455458,0.593025499 L80.3724478,24.646449 C77.0419078,23.9205913 73.7723988,23.2030767 70.5987953,22.4480178 L70.6162327,22.3729291 L49.5082821,17.3294693 L45.4366535,32.972955 C45.4366535,32.972955 56.7927483,35.4633979 56.5529843,35.6177469 C62.7519735,37.0986636 63.8723253,41.0241356 63.6848734,44.1361463 L56.5442656,71.5477048 C56.9714815,71.6519947 57.5251183,71.8021721 58.1354267,72.0357815 C57.6253833,71.9148052 57.0804651,71.7813141 56.5181096,71.6519947 L46.5090524,110.051537 C45.7505263,111.853667 43.828055,114.556861 39.4948656,113.530649 C39.6474427,113.7434 28.3698161,110.873342 28.3698161,110.873342 L20.771477,127.638987 L40.6893263,132.390435 C44.3947699,133.278985 48.0261046,134.209251 51.6007679,135.085286 L45.266639,159.422378 L60.5548634,163.072525 L66.8279615,138.994072 C71.0042144,140.078687 75.0584057,141.07987 79.02541,142.02265 L72.7741087,165.98847 L88.0797705,169.638617 L94.4138994,145.347413 C120.513301,150.073831 140.139074,148.167412 148.400033,125.578218 C155.056754,107.390059 148.068723,96.8984947 134.336785,90.057077 C144.337123,87.8503026 151.870072,81.555364 153.87973,68.5524987 Z M118.909061,115.478784 C114.179172,133.666943 82.1772168,123.834491 71.8019746,121.369078 L80.2067926,89.126811 C90.5820348,91.6047391 123.852559,96.5105362 118.909061,115.478784 Z M123.643311,68.2896881 C119.327559,84.8342386 92.691958,76.4284723 84.0517353,74.3677038 L91.6718711,45.1248146 C100.312094,47.1855831 128.137796,51.0317948 123.643311,68.2896881 Z" id="Shape-Copy-2"></path>
        </g>
    </g>
</svg>