<?xml version="1.0" encoding="UTF-8"?>
<svg width="18px" height="18px" viewBox="0 0 18 18" version="1.1" xmlns="http://www.w3.org/2000/svg" xmlns:xlink="http://www.w3.org/1999/xlink">
    <!-- Generator: Sketch 49.3 (51167) - http://www.bohemiancoding.com/sketch -->
    <title>icon / light / cancel</title>
    <desc>Created with Sketch.</desc>
    <defs></defs>
    <g id="Channels" stroke="none" stroke-width="1" fill="none" fill-rule="evenodd" fill-opacity="0.65">
        <g id="Channels-Detail" transform="translate(-1011.000000, -267.000000)" fill="#252F4A">
            <g id="icon-/-light-/-cancel" transform="translate(1019.798990, 276.087891) rotate(-270.000000) translate(-1019.798990, -276.087891) translate(1005.798990, 262.087891)">
                <path d="M15.6131799,13.9018125 L22.0658995,20.3545322 C22.5113668,20.7999995 22.5113668,21.5222447 22.0658995,21.9677121 C21.6204322,22.4131794 20.8981869,22.4131794 20.4527196,21.9677121 L14,15.5149924 L7.5472804,21.9677121 C7.10181307,22.4131794 6.37956783,22.4131794 5.9341005,21.9677121 C5.48863317,21.5222447 5.48863317,20.7999995 5.9341005,20.3545322 L12.3868201,13.9018125 L5.9341005,7.44909295 C5.48863317,7.00362562 5.48863317,6.28138037 5.9341005,5.83591304 C6.37956783,5.39044572 7.10181307,5.39044572 7.5472804,5.83591304 L14,12.2886326 L20.4527196,5.83591304 C20.8981869,5.39044572 21.6204322,5.39044572 22.0658995,5.83591304 C22.5113668,6.28138037 22.5113668,7.00362562 22.0658995,7.44909295 L15.6131799,13.9018125 Z" id="Combined-Shape" transform="translate(14.000000, 13.901813) rotate(-270.000000) translate(-14.000000, -13.901813) "></path>
            </g>
        </g>
    </g>
</svg>