<?xml version="1.0" encoding="UTF-8"?>
<svg width="24px" height="25px" viewBox="0 0 24 25" version="1.1" xmlns="http://www.w3.org/2000/svg" xmlns:xlink="http://www.w3.org/1999/xlink">
    <!-- Generator: Sketch 52.2 (67145) - http://www.bohemiancoding.com/sketch -->
    <title>Shape</title>
    <desc>Created with Sketch.</desc>
    <g id="Home" stroke="none" stroke-width="1" fill="none" fill-rule="evenodd">
        <g id="Channel-Icon---Option-1A" transform="translate(-24.000000, -63.000000)" fill="#FFFFFF" fill-rule="nonzero">
            <g id="noun_1024740_cc" transform="translate(24.000000, 63.183594)">
                <path d="M19.32,14.4 L17.52,6.6 C18.48,6 19.2,4.92 19.2,3.6 C19.2,1.56 17.64,0 15.6,0 C13.56,0 12,1.56 12,3.6 C12,4.44 12.36,5.28 12.84,5.88 L9.12,12.12 C8.88,12 8.4,12 8.28,12 L6,6.24 C6.72,5.64 7.2,4.68 7.2,3.6 C7.2,1.56 5.64,0 3.6,0 C1.56,0 0,1.56 0,3.6 C0,5.64 1.56,7.2 3.6,7.2 C3.6,7.2 3.72,7.2 3.72,7.2 L6,12.96 C5.28,13.68 4.8,14.52 4.8,15.6 C4.8,17.64 6.36,19.2 8.4,19.2 C10.44,19.2 12,17.64 12,15.6 C12,14.76 11.64,13.92 11.16,13.32 L14.88,7.08 C15,7.08 15.12,7.08 15.24,7.08 L17.04,14.88 C15.48,15.72 14.4,17.28 14.4,19.08 C14.4,21.72 16.56,23.88 19.2,23.88 C21.84,23.88 24,21.72 24,19.08 C24,16.56 21.96,14.52 19.32,14.4 Z M3.6,4.8 C2.88,4.8 2.4,4.32 2.4,3.6 C2.4,2.88 2.88,2.4 3.6,2.4 C4.32,2.4 4.8,2.88 4.8,3.6 C4.8,4.32 4.32,4.8 3.6,4.8 Z M8.4,16.8 C7.68,16.8 7.2,16.32 7.2,15.6 C7.2,14.52 8.28,14.4 8.4,14.4 C9.12,14.4 9.6,14.88 9.6,15.6 C9.6,16.2 9,16.8 8.4,16.8 Z M15.6,4.8 C14.88,4.8 14.4,4.32 14.4,3.6 C14.4,2.88 14.88,2.4 15.6,2.4 C16.32,2.4 16.8,2.88 16.8,3.6 C16.8,4.2 16.2,4.8 15.6,4.8 Z M19.2,21.6 C17.88,21.6 16.8,20.52 16.8,19.2 C16.8,17.88 17.88,16.8 19.2,16.8 C20.52,16.8 21.6,17.88 21.6,19.2 C21.6,20.52 20.52,21.6 19.2,21.6 Z" id="Shape"></path>
            </g>
        </g>
    </g>
</svg>