<?xml version="1.0" encoding="UTF-8"?>
<svg width="60px" height="115px" viewBox="0 0 60 115" version="1.1" xmlns="http://www.w3.org/2000/svg" xmlns:xlink="http://www.w3.org/1999/xlink">
    <!-- Generator: Sketch 50.2 (55047) - http://www.bohemiancoding.com/sketch -->
    <title>Error Lightning Icon</title>
    <desc>Created with Sketch.</desc>
    <defs></defs>
    <g id="Errors-and-Notifications" stroke="none" stroke-width="1" fill="none" fill-rule="evenodd">
        <g id="Error---Fullscreen" transform="translate(-690.000000, -298.000000)">
            <g id="Error-Lightning-Icon" transform="translate(662.000000, 297.000000)">
                <g id="icon-/-bolt-white" transform="translate(58.000000, 58.394074) rotate(-360.000000) translate(-58.000000, -58.394074) translate(0.000000, 0.393795)" fill="#FFFFFF">
                    <g id="bolt-white" transform="translate(28.596849, 0.076773)">
                        <path d="M56.7739266,49.44901 L56.7699616,49.4899748 L56.6146131,49.5297975 C56.0355787,49.2533012 55.3952245,49.1301852 54.7549423,49.172253 L30.1550698,49.172253 L48.5818484,0.629052971 L48.3342908,0.9381609 L48.5818484,0.285993593 L47.7871217,1.62131922 L9.70446326,49.1722377 L9.51878459,49.2282186 C9.51878459,49.2282186 8.95300096,49.9228634 8.11933015,50.9525305 C8.0067189,51.0916023 7.89084545,51.2348226 7.76909314,51.3853274 C7.66681096,51.5117872 7.56170713,51.6418147 7.45378166,51.77541 C7.19016134,52.1017496 6.9103331,52.4486289 6.6227657,52.805696 C6.49248096,52.9674543 6.36069372,53.1312181 6.22740397,53.2969873 C6.12019155,53.4303025 6.0123985,53.5644416 5.90402482,53.6994044 C5.59302603,54.0867443 5.27846326,54.479264 4.96661645,54.8695796 C4.79044937,55.090068 4.61601527,55.3088399 4.44331414,55.5258954 C3.17903903,57.114157 2.03756288,58.5712006 1.5274775,59.2835507 C1.43083353,59.418497 1.35683403,59.5267498 1.30890168,59.6041528 C1.02264069,60.0664433 0.290060247,60.4705603 0.290060247,62.430695 C0.291163125,62.5283175 0.301600835,62.6256108 0.321230794,62.7212457 C0.350051746,63.0247463 0.420121659,63.3228997 0.529504294,63.6074672 C0.531742768,63.63596 0.53542517,63.664426 0.53542517,63.6930105 L0.53542517,63.7090045 C0.566549879,63.7635835 0.59944703,63.8179333 0.63192399,63.8723481 L0.567596537,63.888831 C1.14058638,65.3331386 2.51215934,66.3030357 4.06485938,66.3618931 L28.6647357,66.3618931 L10.2379571,114.899757 L10.3636019,114.74343 L10.2379571,115.075599 L10.6163584,114.428959 L49.2496124,66.361874 L49.3204185,66.361874 C49.4078717,66.2783133 49.8133448,65.7829651 50.4013221,65.0473555 C50.5693069,64.8371949 50.7521894,64.6073809 50.9468067,64.3619893 C51.141424,64.1165976 51.347799,63.855613 51.5627421,63.5829891 C53.8196043,60.7205894 57.0219808,56.5784018 57.5108962,55.7887823 C57.742201,55.4763553 57.9458723,55.1443878 58.1196043,54.7966383 C58.4026411,54.1283384 58.5370829,53.4065178 58.5136252,52.6811322 C58.4900301,51.3859479 57.8420019,50.182 56.7739266,49.44901 Z" id="Shape" fill-rule="nonzero"></path>
                    </g>
                </g>
                <circle id="Oval-5-Copy-9" stroke="#252F4A" stroke-width="8" fill="#F5406E" cx="58" cy="58.3940739" r="11.5869734"></circle>
            </g>
        </g>
    </g>
</svg>