<?xml version="1.0" encoding="UTF-8"?>
<svg width="64px" height="126px" viewBox="0 0 64 126" version="1.1" xmlns="http://www.w3.org/2000/svg" xmlns:xlink="http://www.w3.org/1999/xlink">
    <!-- Generator: Sketch 49.1 (51147) - http://www.bohemiancoding.com/sketch -->
    <title>Shape</title>
    <desc>Created with Sketch.</desc>
    <defs></defs>
    <g id="Onboarding" stroke="none" stroke-width="1" fill="none" fill-rule="evenodd">
        <g id="Welcome-Screen" transform="translate(-688.000000, -432.000000)" fill="#600f96" fill-rule="nonzero">
            <g id="bolt&amp;word-black" transform="translate(531.000000, 431.280741)">
                <path d="M218.957173,54.3556751 L218.952867,54.3797049 L218.852527,54.4053042 C218.212999,54.0396742 217.48403,53.8600111 216.747839,53.8865789 L189.828739,53.8865789 L209.992765,0.766786859 L209.841833,0.955273357 L209.992765,0.557633647 L209.508212,1.37182568 L167.450064,53.8865987 L167.246885,54.030969 C167.246885,54.030969 165.902698,55.6880517 164.250166,57.7466911 C163.995953,58.0634115 163.734421,58.3896409 163.469341,58.7207897 C163.071761,59.2175426 162.66626,59.7253608 162.265541,60.2288334 C161.836492,60.767922 161.414038,61.3008186 161.011631,61.8110504 C160.814613,62.0608754 160.623364,62.3040862 160.437882,62.540683 C160.386767,62.605888 160.336268,62.670394 160.286383,62.734201 C160.107017,62.9634999 159.935625,63.18358 159.772208,63.3944411 C159.724834,63.4555774 159.67843,63.5155069 159.632625,63.5747968 C159.453358,63.8067929 159.284351,64.0268729 159.132457,64.2267479 C158.960918,64.4525057 158.808417,64.6557569 158.678851,64.8319713 C158.575933,64.9718772 158.49223,65.089204 158.420049,65.1926827 C158.355932,65.2846541 158.299985,65.3669187 158.262958,65.42669 C157.464081,66.2580142 157.058408,67.3910293 157.14807,68.5404925 C157.150733,68.6351395 157.161493,68.7293849 157.18023,68.8221968 C157.207899,69.1600291 157.28187,69.4924554 157.400066,69.8101435 C157.407842,69.8539834 157.413345,69.898196 157.416552,69.9426044 L157.416552,69.9600728 C157.435346,69.9930446 157.457484,70.0242689 157.476765,70.0570099 L157.451773,70.0633668 C158.086914,71.6267904 159.591592,72.6622122 161.278748,72.696843 L188.197882,72.696843 L168.033856,125.893908 L168.112019,125.796588 L168.033856,126.003222 L168.269591,125.600373 L210.756866,72.696843 L210.800963,72.696843 C210.910357,72.5923158 211.474207,71.9044651 212.271293,70.9108472 C212.470522,70.6624707 212.684403,70.3948981 212.909357,70.1126333 C213.696723,69.124647 214.62021,67.9557049 215.531523,66.7918669 C215.791895,66.4593333 216.051337,66.1272415 216.306275,65.799858 C216.688681,65.3087829 217.061058,64.8284565 217.411786,64.3734393 C217.645589,64.0700989 217.869698,63.7779689 218.080803,63.5015335 C218.502934,62.9485571 218.872739,62.4580029 219.162409,62.0644913 C219.45208,61.6709796 219.661734,61.3746292 219.763643,61.2100473 C219.841964,61.0835873 219.94967,60.9444464 220.067241,60.7733888 C220.645229,59.9126934 220.924111,58.8857973 220.860905,57.8509677 C220.83424,56.445147 220.123735,55.1406443 218.957173,54.3556751 Z" id="Shape"></path>
            </g>
        </g>
    </g>
</svg>