<?xml version="1.0" encoding="UTF-8"?>
<svg width="24px" height="23px" viewBox="0 0 24 23" version="1.1" xmlns="http://www.w3.org/2000/svg" xmlns:xlink="http://www.w3.org/1999/xlink">
    <!-- Generator: Sketch 52.2 (67145) - http://www.bohemiancoding.com/sketch -->
    <title>Icon / Hide Password</title>
    <desc>Created with Sketch.</desc>
    <defs>
        <path d="M23.9248434,11.6 C23.7244259,11.2 19.5156576,3 12,3 C4.48434238,3 0.275574113,11.2 0.0751565762,11.6 C-0.0250521921,11.9 -0.0250521921,12.2 0.0751565762,12.5 C0.275574113,12.8 4.48434238,21 12,21 C19.5156576,21 23.7244259,12.8 23.9248434,12.4 C24.0250522,12.2 24.0250522,11.8 23.9248434,11.6 Z M12,19 C6.58872651,19 3.08141962,13.6 2.07933194,12 C2.98121086,10.4 6.58872651,5 12,5 C17.4112735,5 20.9185804,10.4 21.9206681,12 C20.9185804,13.6 17.4112735,19 12,19 Z M12,8 C9.7954071,8 7.99164927,9.8 7.99164927,12 C7.99164927,14.2 9.7954071,16 12,16 C14.2045929,16 16.0083507,14.2 16.0083507,12 C16.0083507,9.8 14.2045929,8 12,8 Z M12,14 C10.8977035,14 9.99582463,13.1 9.99582463,12 C9.99582463,10.9 10.8977035,10 12,10 C13.1022965,10 14.0041754,10.9 14.0041754,12 C14.0041754,13.1 13.1022965,14 12,14 Z" id="path-1"></path>
    </defs>
    <g id="Settings" stroke="none" stroke-width="1" fill="none" fill-rule="evenodd">
        <g id="Reset-Password-2-Strong" transform="translate(-981.000000, -638.000000)">
            <g id="Icon-/-Hide-Password" transform="translate(981.000000, 637.000000)">
                <g id="Hide-Password-Icon">
                    <g id="icon-/-eye" opacity="0.5" transform="translate(0.034400, 0.425380)">
                        <mask id="mask-2" fill="white">
                            <use xlink:href="#path-1"></use>
                        </mask>
                        <use id="Mask" fill="#000000" fill-rule="nonzero" xlink:href="#path-1"></use>
                        <g id="color-/-black" mask="url(#mask-2)" fill="#000000" fill-rule="evenodd">
                            <rect id="Shape" x="0" y="0" width="24" height="24"></rect>
                        </g>
                    </g>
                    <path d="M10.5344001,0.492837549 L13.5344001,0.492837549 L13.5344001,24.3579225 L10.5344001,24.3579225 L10.5344001,0.492837549 Z" id="Rectangle-2" stroke="#F5F5F5" fill="#7A7A7A" transform="translate(12.034400, 12.425380) rotate(39.000000) translate(-12.034400, -12.425380) "></path>
                </g>
            </g>
        </g>
    </g>
</svg>