<?xml version="1.0" encoding="UTF-8"?>
<svg width="20px" height="21px" viewBox="0 0 20 21" version="1.1" xmlns="http://www.w3.org/2000/svg" xmlns:xlink="http://www.w3.org/1999/xlink">
    <!-- Generator: Sketch 49.2 (51160) - http://www.bohemiancoding.com/sketch -->
    <title>Combined Shape</title>
    <desc>Created with Sketch.</desc>
    <defs></defs>
    <g id="Symbols" stroke="none" stroke-width="1" fill="none" fill-rule="evenodd">
        <g id="icon-/-button-medium-/-settings" transform="translate(-10.000000, -10.000000)" fill="#FFFFFF">
            <path d="M20.9677079,12.3426054 C21.3343107,12.3858595 21.6934826,12.4533821 22.0435729,12.5435226 L22.6310629,11.0130588 L24.4379293,11.7066498 L23.8469328,13.2462482 C24.1694661,13.4186703 24.4790797,13.6120987 24.7739461,13.8247055 L25.8732604,12.6037934 L27.3115547,13.8988394 L26.1995881,15.1338034 C26.4334599,15.4059092 26.6497251,15.6935848 26.8466162,15.9950629 L28.3447338,15.2643821 L29.1931643,17.0039224 L27.7051328,17.7296838 C27.8250589,18.0684403 27.923278,18.4174601 27.9981182,18.7750714 L29.6663296,18.6291218 L29.8350122,20.5571728 L28.1678522,20.7030304 C28.1570726,21.0681342 28.1223435,21.4272261 28.0651819,21.7787895 L29.6843837,22.2430882 L29.1509108,24.1035293 L27.5291453,23.6384956 C27.388551,23.970847 27.2265934,24.2919614 27.0449941,24.6001173 L28.3971611,25.6190482 L27.2323988,27.16474 L25.8722464,26.1397917 C25.6235509,26.3967428 25.3581425,26.6374196 25.0777735,26.8600698 L25.9788591,28.3021081 L24.3375333,29.3277222 L23.4304469,27.8760805 C23.108248,28.0253169 22.7746884,28.1541812 22.4314213,28.2610201 L22.7560345,29.9310102 L20.8561777,30.300305 L20.5280174,28.6120667 C20.3534452,28.6232003 20.1773826,28.6288523 20,28.6288523 C19.8226174,28.6288523 19.6465548,28.6232003 19.4719826,28.6120667 L19.1438223,30.300305 L17.2439655,29.9310102 L17.5685787,28.2610201 C17.2253116,28.1541812 16.891752,28.0253169 16.5695531,27.8760805 L15.6624667,29.3277222 L14.0211409,28.3021081 L14.9222265,26.8600698 C14.6418575,26.6374196 14.3764491,26.3967428 14.1277536,26.1397917 L12.7676012,27.16474 L11.6028389,25.6190482 L12.9550059,24.6001173 C12.7734066,24.2919614 12.611449,23.970847 12.4708547,23.6384956 L10.8490892,24.1035293 L10.3156163,22.2430882 L11.9348181,21.7787895 C11.8776565,21.4272261 11.8429274,21.0681342 11.8321478,20.7030304 L10.1649878,20.5571728 L10.3336704,18.6291218 L12.0018818,18.7750714 C12.076722,18.4174601 12.1749411,18.0684403 12.2948672,17.7296838 L10.8068357,17.0039224 L11.6552662,15.2643821 L13.1533838,15.9950629 C13.3502749,15.6935848 13.5665401,15.4059092 13.8004119,15.1338034 L12.6884453,13.8988394 L14.1267396,12.6037934 L15.2260539,13.8247055 C15.5209203,13.6120987 15.8305339,13.4186703 16.1530672,13.2462482 L15.5620707,11.7066498 L17.3689371,11.0130588 L17.9564271,12.5435226 C18.3065174,12.4533821 18.6656893,12.3858595 19.0322921,12.3426054 L19.0322921,10.699695 L20.9677079,10.699695 L20.9677079,12.3426054 Z M20,25.9397256 C23.0278169,25.9397256 25.4823474,23.4851951 25.4823474,20.4573782 C25.4823474,17.4295613 23.0278169,14.9750308 20,14.9750308 C16.9721831,14.9750308 14.5176526,17.4295613 14.5176526,20.4573782 C14.5176526,23.4851951 16.9721831,25.9397256 20,25.9397256 Z" id="Combined-Shape"></path>
        </g>
    </g>
</svg>