<?xml version="1.0" encoding="UTF-8"?>
<svg width="218px" height="281px" viewBox="0 0 218 281" version="1.1" xmlns="http://www.w3.org/2000/svg" xmlns:xlink="http://www.w3.org/1999/xlink">
    <!-- Generator: Sketch 49.3 (51167) - http://www.bohemiancoding.com/sketch -->
    <title>undraw_security_on_6e8f</title>
    <desc>Created with Sketch.</desc>
    <defs>
        <linearGradient x1="50%" y1="100%" x2="50%" y2="0%" id="linearGradient-1">
            <stop stop-color="#808080" stop-opacity="0.25" offset="0%"></stop>
            <stop stop-color="#808080" stop-opacity="0.12" offset="54%"></stop>
            <stop stop-color="#808080" stop-opacity="0.1" offset="100%"></stop>
        </linearGradient>
    </defs>
    <g id="Onboarding" stroke="none" stroke-width="1" fill="none" fill-rule="evenodd">
        <g id="Seed---Success" transform="translate(-611.000000, -234.000000)" fill-rule="nonzero">
            <g id="undraw_security_on_6e8f" transform="translate(610.500000, 234.000000)">
                <g id="Group" opacity="0.5" transform="translate(0.826614, 0.000000)" fill="url(#linearGradient-1)">
                    <path d="M108.860976,0.0195511809 L0.156409448,66.9158719 C0.156409448,66.9158719 0.156409448,204.896376 108.860976,280.144962 C217.565542,204.896376 217.565542,66.9158719 217.565542,66.9158719 L108.860976,0.0195511809 Z" id="Shape"></path>
                </g>
                <path d="M109.687589,4.2035039 L215.146659,69.1134247 C215.146659,69.1134247 215.146659,202.952989 109.687589,275.964919 C4.22851919,202.96472 4.22851919,69.1134247 4.22851919,69.1134247 L109.687589,4.2035039 Z M134.730378,129.149755 L134.726653,129.188239 L134.580713,129.22565 C134.03675,128.9659 133.435181,128.850241 132.83368,128.889761 L109.723782,128.889761 L127.03448,83.2867442 L126.801917,83.57713 L127.03448,82.9644634 L126.287889,84.2189105 L90.5118355,128.889747 L90.3374031,128.942337 C90.3374031,128.942337 89.8058881,129.594908 89.0227114,130.56221 C88.9169208,130.692859 88.8080656,130.827404 88.6936877,130.968793 C88.5976005,131.087593 88.4988627,131.209745 88.3974741,131.335249 C88.1498208,131.641823 87.8869413,131.967692 87.6167914,132.303132 C87.4943978,132.455093 87.3705927,132.608938 87.2453761,132.764667 C87.1446574,132.889907 87.0433932,133.015922 86.9415835,133.14271 C86.6494214,133.50659 86.3539112,133.875335 86.0609524,134.24201 C85.8954555,134.449144 85.7315866,134.654665 85.5693457,134.858574 C84.3816457,136.350637 83.3093069,137.71943 82.8301166,138.388634 C82.7393262,138.515407 82.6698087,138.617103 82.6247796,138.689818 C82.3558569,139.124108 81.6676477,139.503748 81.6676477,141.345161 C81.6686838,141.43687 81.6784893,141.528271 81.6969303,141.618113 C81.7240056,141.903231 81.7898315,142.183326 81.892589,142.450658 C81.8946919,142.477425 81.8981513,142.504167 81.8981513,142.53102 L81.8981513,142.546045 C81.9273908,142.597318 81.9582954,142.648376 81.9888053,142.699495 L81.9283741,142.71498 C82.4666588,144.071808 83.7551578,144.98296 85.2138134,145.038252 L108.323715,145.038252 L91.0130165,190.636256 L91.1310512,190.489398 L91.0130165,190.801448 L91.3684987,190.193974 L127.661799,145.038235 L127.728316,145.038235 C127.810473,144.959735 128.191387,144.494389 128.743751,143.803334 C128.901562,143.605903 129.073367,143.390008 129.256197,143.15948 C129.439027,142.928951 129.632902,142.683774 129.834826,142.427662 C131.954994,139.738633 134.963408,135.847331 135.42271,135.105538 C135.640005,134.812034 135.83134,134.500173 135.99455,134.173486 C136.260443,133.545664 136.386742,132.867563 136.364705,132.186113 C136.342539,130.969376 135.733761,129.838349 134.730378,129.149755 Z" id="Combined-Shape" fill="#FFFFFF"></path>
                <path d="M108.514518,168.861078 L127.661799,145.038235 L127.728316,145.038235 C127.810473,144.959735 128.191387,144.494389 128.743751,143.803334 C128.901562,143.605903 129.073367,143.390008 129.256197,143.15948 C129.439027,142.928951 129.632902,142.683774 129.834826,142.427662 C131.954994,139.738633 134.963408,135.847331 135.42271,135.105538 C135.640005,134.812034 135.83134,134.500173 135.99455,134.173486 C136.260443,133.545664 136.386742,132.867563 136.364705,132.186113 C136.342539,130.969376 135.733761,129.838349 134.730378,129.149755 L134.726653,129.188239 L134.580713,129.22565 C134.03675,128.9659 133.435181,128.850241 132.83368,128.889761 L109.723782,128.889761 L127.03448,83.2867442 L126.801917,83.57713 L127.03448,82.9644634 L126.287889,84.2189105 L108.514518,106.411166 L108.514518,5.31010075 L110.317137,4.2035039 L215.776207,69.1134247 C215.776207,69.1134247 215.776207,202.952989 110.317137,275.964919 C109.711051,275.546524 109.112785,275.120308 108.514518,274.698003 L108.514518,168.861078 Z" id="Combined-Shape" fill="#6C63FF" opacity="0.04"></path>
            </g>
        </g>
    </g>
</svg>