<?xml version="1.0" encoding="UTF-8"?>
<svg width="265px" height="290px" viewBox="0 0 265 290" version="1.1" xmlns="http://www.w3.org/2000/svg" xmlns:xlink="http://www.w3.org/1999/xlink">
    <!-- Generator: Sketch 52.5 (67469) - http://www.bohemiancoding.com/sketch -->
    <title>Group 4</title>
    <desc>Created with Sketch.</desc>
    <defs>
        <linearGradient x1="50%" y1="100%" x2="50%" y2="0%" id="linearGradient-1">
            <stop stop-color="#808080" stop-opacity="0.25" offset="0%"></stop>
            <stop stop-color="#808080" stop-opacity="0.12" offset="54%"></stop>
            <stop stop-color="#808080" stop-opacity="0.1" offset="100%"></stop>
        </linearGradient>
    </defs>
    <g id="Onboarding" stroke="none" stroke-width="1" fill="none" fill-rule="evenodd">
        <g id="Seed-Success---Mobile---Small" transform="translate(-56.000000, -208.000000)">
            <g id="Group-4" transform="translate(55.000000, 208.000000)">
                <g id="Group-2" transform="translate(0.718421, 0.422703)" fill="#57038D">
                    <circle id="Oval-3-Copy" cx="8.47893117" cy="110.907612" r="7.86468936"></circle>
                    <circle id="Oval-3-Copy-6" cx="257.323958" cy="86.3110489" r="7.86468936"></circle>
                    <circle id="Oval-3-Copy-9" cx="48.4653515" cy="234.98217" r="7.86468936"></circle>
                    <circle id="Oval-3-Copy-5" cx="202.757287" cy="248.358977" r="13.376807"></circle>
                    <circle id="Oval-3-Copy-8" cx="229.510901" cy="13.7099753" r="13.376807"></circle>
                    <circle id="Oval-3-Copy-3" cx="184.682431" cy="33.8128194" r="3.36301852"></circle>
                    <circle id="Oval-3-Copy-7" cx="12.6719652" cy="50.4641071" r="3.36301852"></circle>
                    <circle id="Oval-3-Copy-10" cx="232.873919" cy="223.754462" r="3.36301852"></circle>
                    <circle id="Oval-3-Copy-4" cx="13.4228743" cy="202.858545" r="3.36301852"></circle>
                    <circle id="Oval-3-Copy-2" cx="64.8500764" cy="33.1708803" r="7.86468936"></circle>
                </g>
                <g id="undraw_security_on_6e8f" transform="translate(32.250000, 26.754351)" fill-rule="nonzero">
                    <g id="Group" opacity="0.5" transform="translate(9.688845, 14.000000)" fill="url(#linearGradient-1)">
                        <path d="M90.7174796,0.0162926508 L0.130341206,55.7632266 C0.130341206,55.7632266 0.130341206,170.74698 90.7174796,233.454135 C181.304618,170.74698 181.304618,55.7632266 181.304618,55.7632266 L90.7174796,0.0162926508 Z" id="Shape"></path>
                    </g>
                    <path d="M99.6417436,159.520703 L118.158827,136.481943 L118.223155,136.481943 C118.302608,136.406028 118.670985,135.955998 119.205169,135.287688 C119.357785,135.096754 119.523936,134.887965 119.700748,134.665024 C119.877561,134.442083 120.065055,134.204975 120.260333,133.957293 C122.310719,131.356769 125.220117,127.593542 125.664302,126.876163 C125.874445,126.592319 126.059483,126.290723 126.217321,125.974788 C126.474463,125.36763 126.596605,124.711847 126.575294,124.052826 C126.553857,122.876135 125.965116,121.782334 124.994757,121.116404 L124.991154,121.153621 L124.850018,121.1898 C124.323959,120.9386 123.742189,120.826748 123.160485,120.864967 L100.811206,120.864967 L117.552155,76.7628883 L117.327246,77.0437166 L117.552155,76.4512147 L116.830137,77.6643741 L99.6417436,99.126213 L99.6417436,1.35270066 L101.385033,0.282525387 L203.373114,63.0560571 C203.373114,63.0560571 203.373114,192.490542 101.385033,263.09942 C100.798894,262.694796 100.220319,262.282608 99.6417436,261.874202 L99.6417436,159.520703 Z" id="Combined-Shape-Copy" fill="#54586E" opacity="0.2196875"></path>
                    <path d="M100.406324,17.5029199 L188.288883,71.5945205 C188.288883,71.5945205 188.288883,183.127491 100.406324,243.970766 C12.523766,183.137266 12.523766,71.5945205 12.523766,71.5945205 L100.406324,17.5029199 Z M121.275315,121.624796 L121.272211,121.656866 L121.150594,121.688041 C120.697292,121.471584 120.195984,121.375201 119.694733,121.408134 L100.436485,121.408134 L114.862067,83.4056202 L114.668264,83.6476083 L114.862067,83.1370528 L114.239907,84.1824254 L84.4265296,121.408122 L84.2811693,121.451947 C84.2811693,121.451947 83.8382401,121.995757 83.1855928,122.801842 C83.097434,122.910715 83.0067214,123.022837 82.9114064,123.140661 C82.8313338,123.239661 82.7490522,123.341455 82.6645617,123.446041 C82.458184,123.701519 82.2391178,123.973077 82.0139928,124.25261 C81.9119982,124.379244 81.8088273,124.507448 81.7044801,124.637222 C81.6205478,124.74159 81.536161,124.846602 81.4513196,124.952259 C81.2078512,125.255491 80.9615927,125.562779 80.7174604,125.868342 C80.5795463,126.040953 80.4429889,126.212221 80.3077881,126.382145 C79.3180381,127.625531 78.4244224,128.766191 78.0250972,129.323862 C77.9494385,129.429506 77.8915073,129.514252 77.853983,129.574848 C77.6298808,129.936757 77.0563731,130.253123 77.0563731,131.787634 C77.0572365,131.864059 77.0654077,131.940226 77.0807752,132.015094 C77.103338,132.252693 77.1581929,132.486105 77.2438242,132.708881 C77.2455766,132.731187 77.2484594,132.753472 77.2484594,132.77585 L77.2484594,132.788371 C77.2728257,132.831099 77.2985795,132.873647 77.3240044,132.916246 L77.2736451,132.92915 C77.7222157,134.05984 78.7959649,134.819133 80.0115111,134.86521 L99.2697624,134.86521 L84.8441804,172.863547 L84.9425427,172.741165 L84.8441804,173.001207 L85.1404155,172.494978 L115.384832,134.865195 L115.440264,134.865195 C115.508727,134.799779 115.826156,134.411991 116.28646,133.836112 C116.417968,133.671586 116.561139,133.491674 116.713497,133.299566 C116.865855,133.107459 117.027418,132.903145 117.195688,132.689719 C118.962495,130.448861 121.469506,127.206109 121.852258,126.587948 C122.033338,126.343362 122.192784,126.083478 122.328791,125.811239 C122.55037,125.288054 122.655619,124.722969 122.637255,124.155094 C122.618783,123.141147 122.111468,122.198624 121.275315,121.624796 Z" id="Combined-Shape" fill="#FFFFFF"></path>
                    <path d="M100.406324,2.01695546 L200.307774,63.5061679 C200.307774,63.5061679 200.307774,190.292479 100.406324,259.45673 C0.504875011,190.303591 0.504875011,63.5061679 0.504875011,63.5061679 L100.406324,2.01695546 Z M124.129375,120.378625 L124.125846,120.415081 L123.987598,120.45052 C123.472301,120.204459 122.902435,120.094895 122.332632,120.132332 L100.44061,120.132332 L116.839046,76.9325632 L116.618739,77.2076458 L116.839046,76.6272664 L116.1318,77.815605 L82.2411197,120.132319 L82.0758798,120.182137 C82.0758798,120.182137 81.5723752,120.800319 80.8304714,121.716644 C80.7302559,121.840408 80.6271373,121.967863 80.518787,122.101801 C80.4277636,122.21434 80.3342292,122.330055 80.2381837,122.448945 C80.0035816,122.739362 79.7545557,123.048059 79.4986425,123.365821 C79.3826989,123.509774 79.2654183,123.655511 79.1468005,123.803033 C79.0513896,123.921674 78.9554619,124.041047 78.8590176,124.161154 C78.5822522,124.505857 78.3023152,124.85517 78.0247951,125.202521 C77.8680198,125.398739 77.7127867,125.59343 77.5590957,125.786593 C76.4339867,127.200025 75.4181594,128.496683 74.9642221,129.130621 C74.8782163,129.250713 74.8123624,129.34705 74.7697062,129.415933 C74.5149556,129.827336 73.8630145,130.18697 73.8630145,131.931341 C73.863996,132.018218 73.8732848,132.104801 73.890754,132.189909 C73.9164024,132.460002 73.9787593,132.725335 74.0761016,132.978579 C74.0780937,133.003935 74.0813707,133.029268 74.0813707,133.054706 L74.0813707,133.068939 C74.1090694,133.117511 74.1383453,133.165878 74.1672474,133.214303 L74.1100008,133.228971 C74.6199183,134.514296 75.8405143,135.377431 77.2222997,135.429809 L99.1143253,135.429809 L82.7158888,178.624829 L82.8277032,178.485711 L82.7158888,178.781316 L83.0526373,178.205855 L117.433306,135.429792 L117.496318,135.429792 C117.574144,135.35543 117.934985,134.914607 118.45824,134.25997 C118.607734,134.072943 118.770485,133.868426 118.94368,133.650046 C119.116874,133.431666 119.300533,133.19941 119.491816,132.956795 C121.500252,130.409477 124.350124,126.723243 124.785222,126.020542 C124.991066,125.742506 125.172318,125.44708 125.326926,125.137609 C125.578807,124.542873 125.69845,123.900507 125.677575,123.254969 C125.656577,122.102353 125.079881,121.030931 124.129375,120.378625 Z" id="Combined-Shape" fill="#FFFFFF" opacity="0.380691964"></path>
                    <path d="M99.4287653,154.717565 L115.384832,134.865195 L115.440264,134.865195 C115.508727,134.799779 115.826156,134.411991 116.28646,133.836112 C116.417968,133.671586 116.561139,133.491674 116.713497,133.299566 C116.865855,133.107459 117.027418,132.903145 117.195688,132.689719 C118.962495,130.448861 121.469506,127.206109 121.852258,126.587948 C122.033338,126.343362 122.192784,126.083478 122.328791,125.811239 C122.55037,125.288054 122.655619,124.722969 122.637255,124.155094 C122.618783,123.141147 122.111468,122.198624 121.275315,121.624796 L121.272211,121.656866 L121.150594,121.688041 C120.697292,121.471584 120.195984,121.375201 119.694733,121.408134 L100.436485,121.408134 L114.862067,83.4056202 L114.668264,83.6476083 L114.862067,83.1370528 L114.239907,84.1824254 L99.4287653,102.675972 L99.4287653,18.425084 L100.930948,17.5029199 L188.813506,71.5945205 C188.813506,71.5945205 188.813506,183.127491 100.930948,243.970766 C100.425876,243.622103 99.9273204,243.266923 99.4287653,242.915002 L99.4287653,154.717565 Z" id="Combined-Shape" fill="#54586E" opacity="0.2196875"></path>
                </g>
            </g>
        </g>
    </g>
</svg>