<svg width="512" height="512" xmlns="http://www.w3.org/2000/svg">

 <g>
  <title>background</title>
  <rect fill="none" id="canvas_background" height="402" width="582" y="-1" x="-1"/>
 </g>
 <g>
  <title>Layer 1</title>
  <path fill="#9634c0" id="svg_1" d="m464,0l-320,0c-26.510002,0 -48,21.49 -48,48l0,48l-48,0c-26.51,0 -48,21.489998 -48,48l0,320c0,26.51001 21.49,48 48,48l320,0c26.51001,0 48,-21.48999 48,-48l0,-48l48,0c26.51001,0 48,-21.48999 48,-48l0,-320c0,-26.51 -21.48999,-48 -48,-48zm-102,464l-308,0a6,6 0 0 1 -6,-6l0,-308a6,6 0 0 1 6,-6l42,0l0,224c0,26.51001 21.489998,48 48,48l224,0l0,42a6,6 0 0 1 -6,6zm96,-96l-308,0a6,6 0 0 1 -6,-6l0,-308a6,6 0 0 1 6,-6l308,0a6,6 0 0 1 6,6l0,308a6,6 0 0 1 -6,6z"/>
 </g>
</svg>