<?xml version="1.0" encoding="UTF-8"?>
<svg width="378px" height="48px" viewBox="0 0 378 48" version="1.1" xmlns="http://www.w3.org/2000/svg" xmlns:xlink="http://www.w3.org/1999/xlink">
    <!-- Generator: Sketch 49.1 (51147) - http://www.bohemiancoding.com/sketch -->
    <title>Lightning</title>
    <desc>Created with Sketch.</desc>
    <defs></defs>
    <g id="Onboarding" stroke="none" stroke-width="1" fill="none" fill-rule="evenodd">
        <g id="Welcome-Screen" transform="translate(-531.000000, -591.000000)" fill="#FFFFFF" fill-rule="nonzero">
            <g id="bolt&amp;word-black" transform="translate(531.000000, 431.280741)">
                <g id="Lightning" transform="translate(0.000000, 160.000000)">
                    <path d="M2.17885354,45.5729133 C1.3938104,44.8049767 0.958885195,43.7481456 0.97600331,42.65009 L0.97600331,3.63615448 C0.961118146,2.84026112 1.26534578,2.07150781 1.82083932,1.501337 C2.35709382,0.922069039 3.11528028,0.599495827 3.90451097,0.614831253 C4.70176674,0.603618913 5.46770239,0.924817117 6.01849028,1.501337 C6.59241357,2.06190514 6.91029207,2.83399561 6.89741912,3.63615448 L6.89741912,40.8108052 L28.1793074,40.8108052 C28.9771204,40.7995683 29.7436503,41.1207282 30.2951793,41.6973109 C30.868361,42.2583795 31.1861021,43.0301363 31.1741082,43.8321284 C31.190161,44.6249207 30.8710188,45.3876987 30.2951793,45.9328465 C29.7346944,46.4924176 28.9711912,46.80069 28.1793074,46.787152 L5.07516096,46.787152 C3.98285693,46.8028908 2.93336553,46.3629054 2.17885354,45.5729133 Z" id="Shape"></path>
                    <path d="M42.0205786,46.2624192 C41.4626167,45.7070091 41.1571865,44.9468583 41.1757426,44.159802 L41.1757426,3.63616108 C41.1608575,2.84026771 41.4650851,2.0715144 42.0205786,1.5013436 C42.5568351,0.922078457 43.3150202,0.599505811 44.1042503,0.614837847 C44.901506,0.603625507 45.6674417,0.924823711 46.2182296,1.5013436 C46.7921529,2.06191173 47.1100314,2.8340022 47.0971584,3.63616108 L47.0971584,44.159802 C47.1137377,44.9532482 46.7945535,45.7168164 46.2182296,46.2624192 C45.6577866,46.8206649 44.8951716,47.1281716 44.1042503,47.1148322 C43.3214824,47.1322402 42.566705,46.8234669 42.0205786,46.2624192 Z" id="Shape"></path>
                    <path d="M70.7165418,44.4553083 C67.2837015,42.5044578 64.4824684,39.6098835 62.6451481,36.1149638 C60.6905918,32.3556983 59.7067031,28.1674952 59.7829401,23.9311577 C59.6995741,19.6264015 60.7305727,15.3732107 62.7758548,11.5844513 C64.6692411,8.09784288 67.4979848,5.2087439 70.9438492,3.24218123 C74.4440807,1.2587567 78.4077141,0.239086458 82.4305592,0.287151073 C85.4391554,0.232888708 88.4374407,0.654183737 91.3145821,1.5354628 C93.8905079,2.38567223 96.3500101,3.5546531 98.635848,5.01519933 C99.0211435,5.22887656 99.3372875,5.54829483 99.5469836,5.93577153 C99.8076112,6.37244013 99.9426419,6.87257882 99.9371981,7.38108307 C99.9508967,8.08991177 99.6816359,8.77499206 99.1889694,9.28480132 C98.6697831,9.81837777 97.9475848,10.1050586 97.2037977,10.0728269 C96.7289382,10.0739818 96.2606799,9.96162506 95.838047,9.74512039 C93.9212123,8.57489995 91.8658645,7.64840321 89.7196248,6.98709663 C87.5641117,6.35709179 85.3277893,6.04692779 83.0821806,6.06652444 C79.9819712,6.01940659 76.9184639,6.74184011 74.1659509,8.16914167 C71.532418,9.55635358 69.3695243,11.6935376 67.9509213,14.3102946 C65.0018008,20.2135473 64.9535353,27.1499396 67.8202212,33.0936603 C69.2053323,35.7608198 71.3295135,37.9724658 73.9386434,39.4640133 C76.829226,41.0754924 80.0996489,41.880831 83.407988,41.7958306 C87.3886722,41.821023 91.3094199,40.8258361 94.7962046,38.9052075 L94.7962046,27.0187543 L84.0577299,27.0187543 C83.3466788,27.0296 82.6631735,26.7441093 82.1710845,26.2307286 C81.1305083,25.1741366 81.1305083,23.477985 82.1710845,22.421393 C82.6624676,21.9067666 83.3462694,21.6204734 84.0577299,21.6314945 L96.879896,21.6314945 C97.7133018,21.617406 98.5149433,21.9509544 99.0923753,22.5520667 C99.688848,23.1404953 100.018143,23.9476408 100.003511,24.7853841 L100.003511,39.6931145 C100.017734,40.5633106 99.7802699,41.4190888 99.3196761,42.1575311 C98.8908544,42.8552558 98.2691144,43.4138356 97.5296116,43.7657496 C92.9236179,46.1564399 87.8150641,47.4173459 82.6256664,47.4443785 C78.4611312,47.5217311 74.350946,46.490116 70.7165418,44.4553083 Z" id="Shape"></path>
                    <path d="M115.244632,46.2624192 C114.68667,45.7070091 114.38124,44.9468583 114.399796,44.159802 L114.399796,3.63616108 C114.384911,2.84026771 114.689139,2.0715144 115.244632,1.5013436 C115.780889,0.922078457 116.539074,0.599505811 117.328304,0.614837847 C118.12556,0.603625507 118.891495,0.924823711 119.442283,1.5013436 C120.016206,2.06191173 120.334085,2.8340022 120.321212,3.63616108 L120.321212,21.106808 L144.988109,21.106808 L144.988109,3.63615448 C144.973913,2.84002612 145.278805,2.07130562 145.834824,1.501337 C146.370331,0.922132513 147.127927,0.599517856 147.916603,0.614831253 C148.714345,0.603960508 149.480735,0.92506163 150.032475,1.501337 C150.605141,2.06260623 150.922219,2.83440104 150.909525,3.63615448 L150.909525,44.1597954 C150.925924,44.9528293 150.607549,45.7160954 150.032475,46.2624126 C149.471094,46.8204081 148.708019,47.1278249 147.916603,47.1148256 C147.134393,47.1322202 146.380205,46.8234078 145.834824,46.2624126 C145.276336,45.7072114 144.97024,44.9470935 144.988109,44.1597954 L144.988109,26.6891551 L120.321212,26.6891551 L120.321212,44.159802 C120.337791,44.9532482 120.018607,45.7168164 119.442283,46.2624192 C118.88184,46.8206649 118.119225,47.1281716 117.328304,47.1148322 C116.545536,47.1322402 115.790759,46.8234669 115.244632,46.2624192 Z" id="Shape"></path>
                    <path d="M177.703669,46.2624192 C177.145707,45.7070091 176.840277,44.9468583 176.858833,44.159802 L176.858833,6.52677756 L163.582071,6.52677756 C162.849927,6.54653233 162.14251,6.26108908 161.6291,5.73875193 C161.109982,5.21677465 160.827855,4.50460828 160.848671,3.76873402 C160.83156,3.02342387 161.112461,2.30207783 161.6291,1.7646167 C162.132788,1.22443101 162.843723,0.92585097 163.582071,0.944404013 L195.992675,0.944404013 C196.739571,0.930360353 197.458684,1.22747589 197.977847,1.7646167 C198.511816,2.29313598 198.805564,3.01758332 198.790476,3.76873402 C198.809303,4.51057845 198.514223,5.22592746 197.977847,5.73875193 C197.449201,6.25797814 196.733505,6.54207802 195.992675,6.52677756 L182.780255,6.52677756 L182.780255,44.159802 C182.796834,44.9532482 182.47765,45.7168164 181.901326,46.2624192 C181.340883,46.8206649 180.578268,47.1281716 179.787347,47.1148322 C179.004577,47.132242 178.249797,46.8234686 177.703669,46.2624192 Z" id="Shape"></path>
                    <path d="M209.5403,46.2624192 C208.982338,45.7070091 208.676908,44.9468583 208.695464,44.159802 L208.695464,4.95076587 C208.679136,3.80720813 209.125153,2.70548601 209.932407,1.89534322 C210.704042,1.06442668 211.791479,0.599169041 212.925322,0.614831253 L213.772037,0.614831253 C215.215833,0.644381897 216.553178,1.38066467 217.350273,2.58484916 L242.407385,39.1021612 L242.407385,3.63615448 C242.393189,2.84002612 242.698081,2.07130562 243.2541,1.501337 C243.789607,0.922132513 244.547202,0.599517856 245.335879,0.614831253 C246.133692,0.603594405 246.900222,0.924754285 247.451751,1.501337 C248.024933,2.06240558 248.342674,2.83416241 248.33068,3.63615448 L248.33068,42.8470898 C248.347791,43.9871774 247.887671,45.0825406 247.061537,45.868413 C246.264569,46.6790579 245.171232,47.1292546 244.034529,47.1148256 L243.2541,47.1148256 C242.57192,47.1185787 241.899949,46.9491191 241.301129,46.6223194 C240.713326,46.3120255 240.202104,45.8745751 239.804671,45.3418075 L214.616866,8.62748903 L214.616866,44.1597954 C214.633446,44.9532416 214.314261,45.7168098 213.737938,46.2624126 C213.177495,46.8206583 212.41488,47.128165 211.623958,47.1148256 C210.841196,47.1322316 210.086424,46.8234611 209.5403,46.2624192 Z" id="Shape"></path>
                    <path d="M264.35984,46.2624192 C263.801878,45.7070091 263.496448,44.9468583 263.515004,44.159802 L263.515004,3.63616108 C263.500119,2.84026771 263.804347,2.0715144 264.35984,1.5013436 C264.896097,0.922078457 265.654282,0.599505811 266.443512,0.614837847 C267.240767,0.603625507 268.006703,0.924823711 268.557491,1.5013436 C269.131414,2.06191173 269.449293,2.8340022 269.43642,3.63616108 L269.43642,44.159802 C269.452999,44.9532482 269.133815,45.7168164 268.557491,46.2624192 C267.997048,46.8206649 267.234433,47.1281716 266.443512,47.1148322 C265.660744,47.1322402 264.905966,46.8234669 264.35984,46.2624192 Z" id="Shape"></path>
                    <path d="M285.497754,46.2624192 C284.939792,45.7070091 284.634362,44.9468583 284.652918,44.159802 L284.652918,4.95076587 C284.63659,3.80720813 285.082606,2.70548601 285.889861,1.89534322 C286.661496,1.06442668 287.748933,0.599169041 288.882776,0.614831253 L289.729491,0.614831253 C291.173287,0.644381897 292.510632,1.38066467 293.307727,2.58484916 L318.364839,39.1021612 L318.364839,3.63615448 C318.350643,2.84002612 318.655535,2.07130562 319.211554,1.501337 C319.747061,0.922132513 320.504656,0.599517856 321.293333,0.614831253 C322.091146,0.603594405 322.857676,0.924754285 323.409205,1.501337 C323.982387,2.06240558 324.300128,2.83416241 324.288134,3.63615448 L324.288134,42.8470898 C324.305245,43.9871774 323.845125,45.0825406 323.018991,45.868413 C322.222023,46.6790579 321.128686,47.1292546 319.991983,47.1148256 L319.211554,47.1148256 C318.529374,47.1185787 317.857403,46.9491191 317.258583,46.6223194 C316.67078,46.3120255 316.159558,45.8745751 315.762125,45.3418075 L290.57432,8.62748903 L290.57432,44.1597954 C290.5909,44.9532416 290.271715,45.7168098 289.695392,46.2624126 C289.134949,46.8206583 288.372334,47.128165 287.581412,47.1148256 C286.79865,47.1322316 286.043878,46.8234611 285.497754,46.2624192 Z" id="Shape"></path>
                    <path d="M347.73706,44.4553083 C344.304222,42.5044568 341.502991,39.6098826 339.665673,36.1149638 C337.711116,32.3556983 336.727228,28.1674952 336.803465,23.9311577 C336.720099,19.6264015 337.751097,15.3732107 339.796379,11.5844513 C341.689766,8.09784288 344.518509,5.2087439 347.964374,3.24218123 C351.464605,1.2587567 355.428239,0.239086458 359.451084,0.287151073 C362.45968,0.232888708 365.457965,0.654183737 368.335107,1.5354628 C370.911033,2.38567223 373.370535,3.5546531 375.656373,5.01519933 C376.041668,5.22887656 376.357812,5.54829483 376.567508,5.93577153 C376.828136,6.37244013 376.963166,6.87257882 376.957723,7.38108307 C376.971421,8.08991177 376.702161,8.77499206 376.209494,9.28480132 C375.690308,9.81837777 374.968109,10.1050586 374.224322,10.0728269 C373.749463,10.0739818 373.281205,9.96162506 372.858572,9.74512039 C370.941737,8.57489995 368.886389,7.64840321 366.740149,6.98709663 C364.584636,6.35709179 362.348314,6.04692779 360.102705,6.06652444 C357.002496,6.01940659 353.938989,6.74184011 351.186475,8.16914167 C348.552943,9.55635358 346.390049,11.6935376 344.971446,14.3102946 C342.022325,20.2135473 341.97406,27.1499396 344.840746,33.0936603 C346.225857,35.7608198 348.350038,37.9724658 350.959168,39.4640133 C353.849751,41.0754924 357.120174,41.880831 360.428513,41.7958306 C364.409197,41.821023 368.329945,40.8258361 371.816729,38.9052075 L371.816729,27.0187543 L361.078248,27.0187543 C360.367197,27.0296 359.683692,26.7441093 359.191602,26.2307286 C358.151026,25.1741366 358.151026,23.477985 359.191602,22.421393 C359.682985,21.906766 360.366787,21.6204725 361.078248,21.6314945 L373.900414,21.6314945 C374.73382,21.617406 375.535461,21.9509544 376.112893,22.5520667 C376.709366,23.1404953 377.038661,23.9476408 377.024029,24.7853841 L377.024029,39.6931145 C377.038252,40.5633106 376.800788,41.4190888 376.340194,42.1575311 C375.911372,42.8552558 375.289632,43.4138356 374.55013,43.7657496 C369.944136,46.1564399 364.835582,47.4173459 359.646184,47.4443785 C355.481649,47.5217311 351.371464,46.490116 347.73706,44.4553083 Z" id="Shape"></path>
                </g>
            </g>
        </g>
    </g>
</svg>