<?xml version="1.0" encoding="UTF-8"?>
<svg width="994px" height="994px" viewBox="0 0 994 994" version="1.1" xmlns="http://www.w3.org/2000/svg" xmlns:xlink="http://www.w3.org/1999/xlink">
    <!-- Generator: sketchtool 50.2 (55047) - http://www.bohemiancoding.com/sketch -->
    <title>02E8A409-3C12-40F6-8F23-1ABD4A5CCC35</title>
    <desc>Created with sketchtool.</desc>
    <defs>
        <linearGradient x1="-6.4709114%" y1="-1.00006949%" x2="87.8201134%" y2="84.6960773%" id="linearGradient-1">
            <stop stop-color="#A95BDC" offset="0%"></stop>
            <stop stop-color="#651399" offset="51.5755742%"></stop>
            <stop stop-color="#610F96" offset="70.3015434%"></stop>
            <stop stop-color="#610F96" offset="70.3015434%"></stop>
            <stop stop-color="#57038D" offset="100%"></stop>
        </linearGradient>
    </defs>
    <g id="App-Icon" stroke="none" stroke-width="1" fill="none" fill-rule="evenodd">
        <g id="Desktop-App-Icon">
            <g>
                <circle id="Oval" fill="url(#linearGradient-1)" cx="497" cy="497" r="497"></circle>
                <g id="icon-/-bolt-white" transform="translate(142.681149, 142.681149)">
                    <rect id="Background" x="0" y="0" width="708.637702" height="708.637702"></rect>
                    <g id="bolt-white" transform="translate(174.696595, 0.469002)" fill="#F5F5F5" fill-rule="nonzero">
                        <path d="M346.828835,302.081317 L346.804613,302.331569 L345.855597,302.574844 C342.318308,300.885743 338.406419,300.133634 334.49497,300.390624 L184.215684,300.390624 L296.783874,3.84285045 L295.271558,5.731174 L296.783874,1.74711933 L291.928932,9.90455108 L59.2840392,300.39053 L58.1497382,300.732515 C58.1497382,300.732515 54.6933967,304.976062 49.600547,311.266242 C48.9126111,312.115825 48.2047464,312.990749 47.4609682,313.910175 C46.8361319,314.682711 46.1940583,315.477042 45.5347475,316.293169 C43.9243052,318.28676 42.2148497,320.405826 40.4581161,322.58713 C39.6622137,323.575302 38.8571326,324.575727 38.0428728,325.588402 C37.3879179,326.402817 36.729416,327.222265 36.0673671,328.046746 C34.1674924,330.412985 32.2458455,332.810866 30.3407902,335.195283 C29.2645951,336.542234 28.1989867,337.8787 27.1439648,339.20468 C19.4205768,348.907284 12.447361,357.808284 9.33127713,362.159993 C8.74088432,362.984372 8.28882545,363.645682 7.99600929,364.118533 C6.24725646,366.942641 1.7719623,369.41137 1.7719623,381.385726 C1.77869972,381.982097 1.84246312,382.576456 1.96238148,383.160685 C2.13844711,385.014753 2.56650041,386.836156 3.23471299,388.574564 C3.2483877,388.748624 3.2708833,388.922522 3.2708833,389.097143 L3.2708833,389.194849 C3.46102245,389.52827 3.66198936,389.86029 3.86038935,390.192707 L3.46741643,390.2934 C6.96778028,399.116596 15.346645,405.041645 24.8320053,405.401202 L175.111314,405.401202 L62.5431242,701.916375 L63.3106815,700.961385 L62.5431242,702.990587 L64.854757,699.040299 L300.863208,405.401085 L301.295759,405.401085 C301.830006,404.890617 304.307019,401.864562 307.89894,397.370763 C308.92515,396.086904 310.04237,394.682982 311.231276,393.183898 C312.420182,391.684813 313.680916,390.090473 314.993992,388.425028 C328.781041,370.938784 348.344185,345.634385 351.330942,340.810642 C352.743971,338.902042 353.988188,336.874071 355.049507,334.749688 C356.778564,330.66708 357.599861,326.257518 357.456559,321.826176 C357.312418,313.913966 353.353649,306.559113 346.828835,302.081317 Z" id="Shape"></path>
                    </g>
                </g>
            </g>
        </g>
    </g>
</svg>